<svg width="16" height="16" viewBox="0 0 16 16" fill="none" xmlns="http://www.w3.org/2000/svg">
<path fill-rule="evenodd" clip-rule="evenodd" d="M10.5002 4.6464 8.3539 2.5H7.6468L5.5003 4.6464l.7071.7071L7.3003 4.2607v1.019l.0054.4575c.002.1107.004.2169.006.3185.0037.1875.0203.3789.0499.5742.0295.1953.0683.3907.1164.586.048.1953.1146.4043.1996.6269.1552.3789.3436.7227.5654 1.0313.2217.3086.4601.5976.7151.8672.255.2695.5081.5351.7594.7968.2513.2618.4786.5411.6818.8379.2033.2969.3677.6211.4934.9727.1256.3515.1885.7558.1885 1.2129v.8847h1.4191v-.8847c-.0074-.5196-.0628-.9824-.1663-1.3887-.1035-.4062-.2458-.7734-.4269-1.1016-.181-.3281-.3825-.6269-.6042-.8964-.2217-.2696-.4527-.5274-.6929-.7735s-.4712-.4922-.6929-.7383c-.2218-.2461-.4232-.5078-.6043-.7851-.181-.2774-.3252-.582-.4323-.9141-.1072-.332-.1608-.709-.1608-1.1308V5.2797H8.719V4.2793L9.7931 5.3535l.7071-.7071ZM7.0424 9.7413c.1128-.1192.2222-.2421.3284-.3689-.2442-.3536-.4497-.7382-.6186-1.1505l-.009-.0224c-.0337-.0882-.0653-.1756-.0946-.2624-.1709.2555-.3592.4975-.5651.726-.2218.2461-.4528.4922-.693.7383-.2402.2461-.4712.5039-.6929.7735-.2217.2695-.4231.5683-.6042.8964-.1811.3282-.3234.6954-.4269 1.1016-.1034.4063-.1589.8691-.1663 1.3887v.8847H4.9193v-.8847c0-.4571.0629-.8614.1885-1.2129.1257-.3516.2901-.6758.4934-.9727.2032-.2968.4305-.5761.6818-.8379.2513-.2617.5045-.5273.7594-.7968Z" fill="#C5C5C5"/>
</svg>
